<svg xmlns="http://www.w3.org/2000/svg" width="93.889" height="213.684" viewBox="0 0 93.889 213.684">
  <g id="route-062520" transform="translate(-214.1 -39)">
    <g id="trk1:Thursday_6_25" transform="translate(215.1 40)">
      <path id="trk1:p810" d="M236.659,251.162l-.034-.068-.068-.2-.034-.272.034-.341.272-1.533.272-1.465.068-.511v-.341l-.034-.307-.1-.375-.477-1.465-.477-1.567-.068-.238-.034-.341-.034-.443.034-.341.136-.545,1.6-4.428.749-2.112.715-1.941.647-1.635.1-.341.715-1.737.579-1.5.817-2.078.817-2.35.954-2.793.885-2.554,1.328-3.542h0l.034-.068.613.307,1.056.511,1.022.443h0l-.034-.034.579-1.022.307-.545.613-1.226.272-.511.307-.409.647-.681.511-.511.409-.375.409-.307,1.5-.817.272-.2.307-.238.613-.715.272-.238.409-.238.409-.136.272-.1.92-.613,1.056-.681,2.861-1.975.341-.341.272-.341.2-.409,1.022-1.805h0v-.034l.749.375.545.272.238.068.341.1h.341l.749-.068,1.124-.238.817.034.681.068,2.248-.034.783.068,2.588.443.886.034.817-.034.681-.068,1.328-.307,2.112-.545h0l-.341-.817-.715-1.158-.1-.238v-.1l-.136-.034-.17-.375-1.022-1.941-.477-1.158-.272-1.805-.068-1.7-.034-1.362-.068-1.7.1-.681.1-.272.307-.783.238-.647.511-1.4.409-1.941.375-1.226.307-.988.034-.647-.034-.579-.272-1.056-.272-.817-.306-.817-.409-.92-.647-1.26-.17-.375-.068-.409-.068-.341v-.341l.034-.238.1-.341.238-.545.511-.851.238-.613.17-.443.2-.851.2-.443.307-.511.885-1.26.409-.613.375-.715.851-1.328.647-1.158,1.43-2.861,1.022-1.941,1.056-1.669,1.226-2.009.272-.545.2-.579.1-.579v-.613l-.034-1.158-.034-.272-.136-.238-.341-.341-.511-.375-.2-.238-.068-.136h0l3.031.851.886.272,1.7.715,1.6.681,1.839.783.647.307h0l1.192-1.465,1.669-2.146.579-.681.17-.272.2-.443.238-.613.068-.341.1-.341.068-.579v-.2l-.1-.545-.2-.681-.375-1.294-.341-.954-.17-.477-.034-.17.034-.2.2-1.022.375-1.465.272-.886.238-.545.2-.545.068-.307.068-.341.341-1.737.2-.851.375-1.464.1-.238h0l-.443-.272-.2-.068-.272-.034h-1.294l-.034-.851.034-.409.17-.749.068-.238.272-.613.749-1.533.715-1.5.681-.817.307-.375.238-.443.136-.511.2-.477.1-.17.272-.307.579-.545.238-.17.477-.341.17-.136.272-.409.136-.238.136-.307.1-.341.068-.477.1-.579v-.409l.034-.647.17-.954v-.545l-.068-.341-.647-2.282-.409-1.4-.136-.477-.068-.579-.1-.783-.238-.613-.341-.817-.17-.443-.068-.272v-.2l.1-.375.443-1.43.1-.477.068-.477.034-1.226-.034-.511-.068-.375-.511-1.328-.2-.783-.136-.749v-.851l.1-.341.238-1.328.238-1.26.341-1.056.341-1.192.2-.817.341-.817.272-.647.17-.613.409-1.294.17-.749.238-1.158.307-1.839.136-.817.068-.341-.034-.1h0l-1.294.136-.749.034-.306.068-.307.136-.341.375-.443.443-.375.341-.477.375-.307.17-1.975.886-.988.477-.715.579-.307.2-.238.136-.272.1-.851.17-2.18.613-.988.238-.613.2-.749.409-1.26.817-.783.341-2.418.817-.954.341-.545.136-.511.068-.92-.1-1.226-.307-.749-.17-.92-.272-.375-.1-.681-.068h0l.443-.545.238-.409.238-.477.068-.17.136-.477.068-.341.034-.341-.034-.341-.2-.613-.068-.307-.034-.375-.068-.443-.272-.511-.647-1.056h0l.477-.341.443-.17.647-.136.477-.136.409-.341.238-.272.306-.613.238-.579.307-.579.1-.375.068-.341V82.1l.068-.2.068-.238.136-.2.375-.375.613-.511,1.533-1.328.783-.715.272-.307,1.124-1.022.92-.613.307-.238.17-.238.238-.341.443-.817.272-.545.238-.511.613-.613.817-.613.749-.715.375-.409,1.056-1.465,1.567-2.044.034-.136v-.1l-.2-.307-.511-.511-.17-.136h0l-.715-.681-.579-.477L293.5,64.147l-1.567-1.294-.238-.238-.034-.1-.034-.2.034-.341.2-.511.17-.443.136-.681.2-.579.068-.068h0l.034-.068-.2-.136-.511-.1-.647-.1-.681.068-.443.068-.375.1-.272.136-.272.2-.238.272-.477.749-.749,1.158-.409.545-1.362,1.771h0l-.375-.238-.238-.2-.341-.307-.749-.681-.579-.238-.2-.2-.272-.17-.443-.579-.477-.545-.545-.954-.341-.409L281,59.481l-.375-.375-1.6-1.6-.886-1.022-.443-.477-.545-.272-.715-.238-1.6-.545-.988-.375-.443-.238-.375-.238-.409-.375-.545-.681-.375-.579-.409-.681-.238-.511-.068-.443v-.17l.034-.443-.068-.341-.034-.511.034-.409.034-.341.068-.613-.034-.341-.034-.2-.1-.341-.477-1.09-.238-.511-.443-.681-.579-.851-.545-.579-1.09-.988-.341-.272-.545-.238-.2-.1-.238-.238-.477-.477-.272-.238-.545-.375-.307-.1-.647-.17-.681-.136-.375-.034L262.577,40l-.443.068-.613.17-1.226.375-.988.341-.886.443-.511.17-.885.341h0l.1.613,1.192,3.27,1.26,3.474.511.988.17.307.307.545.443.579.409.579.307.545.443,1.158.1.443.068.715.307,3.031.2,2.112.17,1.26.375,3.031.1,1.022L263.8,68.3l.409,3.372.1,1.328h0l-1.873-.17-1.328-.17-1.056-.17-.477-.1-.613-.307-.988-.613-1.022-.579-.409-.2-.477-.136-.409.034-1.294.307-.886.238-.579.238-2.146,1.124-3.44,1.907-.375.17-.511.341-.341.307-.443.511-.511.443-.545.307-.375.1-.545.1-1.839-.136h-.681l-.477.17-.613.409-.272.272-.749.886-.579.511-.307.238-.307.136-1.4.477-.817.307-1.09.477h0l-.068.034.2.2.681.988,1.362,1.873.852,1.158.17.307.136.272.2.511.1.511.2,1.226.034.579.238,1.7.17,1.6.136,1.465.034.477h0V93.3h.2l1.362.136,1.022.068,1.805-.2.954-.1h.477l.647.034,1.158.136h1.533l.341.1.341.1,1.328.681.375.136H251l1.533-.2,1.056-.136.988-.034.579-.034.511-.1.817-.2.375-.1,1.022-.409,1.328-.613.375-.17.238-.2.136-.2.136-.272.238-.715.272-.783.341-1.158.136-.17.136-.034h.238l.579.2,1.567.613,2.418,1.26.477.2.579.17.545.136.886.1,2.486.545.409.068.477.034.375-.034,1.4-.341,1.124-.238.579-.068.886.068.681.17,1.567.715.715.238.851.238.749.136h0l.375,2.009.341,2.009.272,2.35.068.749v1.43l-.068.647-.17.409-.272.375-.341.272-1.635,1.056-.341.238-.272.068-.375.034-1.6.1-.715.136-.545.272-.954.749h0l.851,4.325.1.988.068.443.068.272.2.307.579.749.2.307v.17l-.034.2-.068.17-.783,1.567-.681,1.362-1.192,2.452-.17.307v.307l.034.817.1,1.6.068.613.647,3h0l-.068,2.316-.034.443-.1.647-.034.341-.1.375-.272.817-.17.375-.443.92-.307.443-.715.954-2.418,3.3-1.124,1.533-1.362,1.941-.238.341.068.034h0l2.554,1.6.647.341h0l-.068-.034-.1.238-.307.783-.375.817-.443.749h0l.2-.341-.2.1-.783.613-.307.238-.409.238-.375.1-.238.068-.613-.034-.613-.034-2.112.409-1.873.375-1.158.375-2.078.681-.681.2-1.567.579-.409.2-.579.341-.375.272-.238.238-.817,1.192-.783,1.294-.715,1.192-.477.681-.443.681-.17.409-.068.1-.1.1-.341.136-1.362.409-.579.17-1.022.443-.545.272-1.192.647-.647.307-.613.17-1.362.2-.511.136-.2-.034h0l-.2-.2-.613-.749-1.09-1.5-.783-1.022-.954-1.4-1.567-2.078-.238-.17h-.17l-.136.034-.272.136-.511.307-.579.341-.613.272-.511.17-5.279.886-.409-.034-.272-.2-.136-.579-.136-.749h0l-4.564,1.465-1.873.579-.238.136-.307.17-.341.272-.2.307-.238.477-.749,1.533-.272.613-.511,1.192-.375.92-.1.2-.307.954-.272,1.192-.511,1.873-.1.511v.579l-.034.749-.136.886-.2.511-.817,1.771-.783,1.669-.2.341h0l-.068.1.375.477.817.715.851.715.545.341h0l.749.272-.068.272-.034.2-.136.034h-.136l.1.477v.068l-.068.068-.136.034.17.817.136.92.2,1.4.2,1.362.238.851.272,1.056.17.579.851,2.588.136.613.068.511.136,1.43.238.545.17.307.375.375.783.545,1.022.545,1.226.647.613.307.647.341,1.294,1.226,1.294,1.26.238.238.272.375.886,1.567.817,1.26.477.647.579.511.511.511.341.272.409.238.681.307.988.511,1.022.613.681.341.817.341.409.238.749.443.92.783.988.545,1.7.886h-.034l.375.272.341.341.886.817.885.715.647.375.477.341.272.238.2.238.1.2.034.238v.17l-.068.341-.1.613v.511l.1.647.1.341.341.749.272.783.068.443-.034.477-.341,1.056-.817,2.18-.749,2.078-1.226,3.474-1.294,3.849-.409,1.022-1.362,3.406-1.192,3.065-1.567,4.393-1.6,4.462-.068.341v.307l.034.341.068.443.238.851.647,1.907.17.579.068.341v.681l-.375,2.044-.272,1.43v.307l.068.272.068.136" transform="translate(-215.1 -40)" fill="none" stroke="#fff" stroke-linejoin="round" stroke-width="2"/>
    </g>
    <g id="Waypoints" transform="translate(235.637 250.14)">
      <circle id="wpt1:marker" cx="1.022" cy="1.022" r="1.022" fill="rgba(0,0,0,0)" stroke="#fff" stroke-width="1"/>
      <circle id="wpt2:marker" cx="1.022" cy="1.022" r="1.022" fill="rgba(0,0,0,0)" stroke="#fff" stroke-width="1"/>
    </g>
  </g>
</svg>
